<?xml version="1.0" encoding="utf-8"?>
<!-- Generated by IcoMoon.io -->
<!DOCTYPE svg PUBLIC "-//W3C//DTD SVG 1.1//EN" "http://www.w3.org/Graphics/SVG/1.1/DTD/svg11.dtd">
<svg version="1.1" xmlns="http://www.w3.org/2000/svg" xmlns:xlink="http://www.w3.org/1999/xlink" width="90" height="90" viewBox="0 0 90 90">
<g id="icomoon-ignore">
	<line stroke-width="1" x1="" y1="" x2="" y2="" stroke="#6dc234" opacity=""></line>
</g>
	<path d="M20.064 72.552v0c-2.070 0-4.059-0.804-5.448-2.187-1.425-1.428-2.181-3.363-2.127-5.463 0.057-2.079 0.903-4.059 2.394-5.547 0.591-0.591 1.245-0.972 1.821-1.311 0.375-0.222 0.729-0.429 0.912-0.609l48.783-48.786c0.288-0.282 0.669-0.438 1.062-0.438v0c0.402 0 0.783 0.159 1.062 0.438l7.953 7.956c0.585 0.585 0.585 1.536 0 2.121l-9.552 9.546 4.242 4.242c0.288 0.282 0.438 0.666 0.438 1.062 0 0.399-0.159 0.78-0.438 1.062l-5.307 5.301c-0.585 0.585-1.539 0.585-2.121 0l-4.242-4.242-31.806 31.815c-0.195 0.192-0.414 0.552-0.642 0.927-0.339 0.561-0.723 1.194-1.299 1.773-1.503 1.506-3.525 2.34-5.685 2.34zM67.458 11.829l-47.724 47.727c-0.459 0.456-0.999 0.774-1.524 1.077-0.459 0.264-0.897 0.516-1.209 0.831-0.942 0.939-1.482 2.187-1.515 3.501-0.033 1.272 0.411 2.436 1.251 3.27 0.834 0.834 2.046 1.314 3.324 1.314v0c1.362 0 2.628-0.525 3.567-1.455 0.315-0.318 0.579-0.75 0.855-1.203 0.312-0.516 0.633-1.056 1.092-1.506l32.865-32.868c0.582-0.585 1.539-0.585 2.121 0l4.242 4.242 3.186-3.18-4.245-4.242c-0.282-0.282-0.438-0.666-0.438-1.062s0.165-0.78 0.438-1.062l9.552-9.546-5.838-5.838z" opacity="1" visibility="false" fill="#6dc234"></path>
	<path d="M26.649 51.774c-0.057 0-0.117 0-0.174-0.006l-4.014-0.462c-0.255-0.033-0.501-0.129-0.711-0.279l-9.537-6.954c-0.354-0.258-0.579-0.66-0.612-1.095s0.126-0.867 0.435-1.179l11.274-11.265c0.312-0.312 0.741-0.477 1.194-0.432 0.444 0.039 0.846 0.276 1.098 0.642l6.717 9.768c0.204 0.303 0.297 0.669 0.252 1.032l-0.627 5.187c-0.099 0.816-0.843 1.407-1.674 1.311-0.819-0.099-1.41-0.849-1.311-1.674l0.561-4.62-5.373-7.818-8.754 8.751 7.803 5.688 3.621 0.423c0.819 0.093 1.413 0.837 1.314 1.659-0.081 0.759-0.729 1.323-1.482 1.323z" opacity="1" visibility="false" fill="#6dc234"></path>
	<path d="M79.737 43.125c-5.445 0-10.707-3.57-13.374-6.234-0.585-0.585 0.021-0.759 0.606-1.35 0.582-0.585 0.924-1.359 1.512-0.777 0.090 0.093 9.354 9.144 16.53 3.516 0.654-0.513 1.596-0.396 2.106 0.255s0.396 1.596-0.255 2.106c-2.268 1.788-4.716 2.484-7.125 2.484z" opacity="1" visibility="false" fill="#6dc234"></path>
	<path d="M8.127 41.553c-0.387 0-0.771-0.147-1.062-0.444-0.582-0.588-0.579-1.539 0.009-2.121l13.473-13.359c0.588-0.582 1.539-0.579 2.121 0.006 0.582 0.588 0.579 1.542-0.009 2.121l-13.473 13.359c-0.294 0.288-0.675 0.438-1.059 0.438z" opacity="1" visibility="false" fill="#6dc234"></path>
	<path d="M7.503 81.792c-0.375 0-0.747-0.141-1.035-0.417l-3.438-3.285c-0.294-0.279-0.456-0.666-0.462-1.068s0.156-0.798 0.438-1.077l6.522-6.486c0.588-0.582 1.542-0.576 2.124 0.009 0.585 0.582 0.582 1.542-0.006 2.118l-5.433 5.403 1.317 1.26 5.805-5.202c0.615-0.561 1.563-0.504 2.118 0.108 0.555 0.621 0.501 1.563-0.114 2.121l-6.834 6.135c-0.285 0.246-0.645 0.381-1.002 0.381z" opacity="1" visibility="false" fill="#6dc234"></path>
</svg>
