<?xml version="1.0" encoding="utf-8"?>
<!-- Generated by IcoMoon.io -->
<!DOCTYPE svg PUBLIC "-//W3C//DTD SVG 1.1//EN" "http://www.w3.org/Graphics/SVG/1.1/DTD/svg11.dtd">
<svg version="1.1" xmlns="http://www.w3.org/2000/svg" xmlns:xlink="http://www.w3.org/1999/xlink" width="90" height="90" viewBox="0 0 90 90">
<g id="icomoon-ignore">
	<line stroke-width="1" x1="" y1="" x2="" y2="" stroke="#6dc234" opacity=""></line>
</g>
	<path d="M54.030 89.625c-11.88 0-14.595-7.791-16.569-13.476-0.36-1.041-0.708-2.040-1.083-2.919-9.585-0.279-12.252-4.722-14.61-8.661-2.325-3.867-4.329-7.209-13.008-7.209-0.54 0-1.041-0.291-1.305-0.762-0.267-0.465-0.258-1.047 0.018-1.509 3.615-6.024 6.699-8.712 9.999-8.712 2.334 0 4.245 1.41 5.934 2.652 1.503 1.113 2.922 2.16 4.407 2.16 5.733 0 15.192-9.465 24.345-18.621 9.729-9.726 16.389-17.082 23.718-28.077 0.297-0.444 0.807-0.696 1.338-0.663 0.537 0.033 1.011 0.348 1.251 0.825 5.427 10.848 6.552 29.037-1.794 42.816-4.236 6.999-12.534 15.36-28.161 16.182 1.248 5.919 10.212 6.591 14.235 6.591 5.49 0 10.263 3.708 10.641 8.271 0.162 1.926-0.348 8.379-13.566 10.584-2.079 0.351-4.026 0.528-5.79 0.528zM11.418 54.474c8.217 0.726 10.698 4.863 12.915 8.559 2.319 3.873 4.326 7.215 13.005 7.215 0.567 0 1.086 0.318 1.341 0.825 0.615 1.227 1.098 2.619 1.611 4.089 1.959 5.631 3.987 11.457 13.74 11.457 1.599 0 3.381-0.162 5.298-0.48 7.11-1.188 11.352-4.014 11.073-7.377-0.222-2.67-3.351-5.52-7.653-5.52-10.881 0-17.376-4.125-17.376-11.031 0-0.813 0.654-1.485 1.476-1.5 15.309-0.288 23.274-8.202 27.264-14.793 7.191-11.88 6.837-27.276 2.748-37.521-6.885 9.99-13.383 17.103-22.572 26.295-10.023 10.029-19.491 19.5-26.466 19.5-2.472 0-4.446-1.455-6.189-2.745-1.44-1.062-2.805-2.067-4.149-2.067-1.722-0.003-3.753 1.707-6.066 5.094z" opacity="1" visibility="false" fill="#6dc234"></path>
	<path d="M21.459 51.012c-0.384 0-0.768-0.147-1.062-0.438-1.137-1.137-3.867-4.239-4.644-8.472-0.567-3.111-0.225-7.836 4.644-12.702 8.217-8.22 10.983-16.512 12.813-21.999 1.020-3.063 1.758-5.277 3.066-6.585 0.282-0.282 0.663-0.438 1.062-0.438 2.283 0 4.503 2.109 6.42 6.099 4.65 9.684 6.813 28.818-2.967 41.043-0.516 0.648-1.461 0.753-2.106 0.234-0.648-0.513-0.753-1.458-0.234-2.106 8.865-11.085 6.795-29.151 2.604-37.872-1.143-2.376-2.31-3.732-3.129-4.206-0.624 1.038-1.212 2.799-1.872 4.779-1.917 5.754-4.815 14.451-13.536 23.172-3.171 3.171-4.452 6.549-3.813 10.041 0.624 3.405 2.874 5.952 3.813 6.888 0.585 0.585 0.585 1.539 0 2.121-0.291 0.294-0.675 0.441-1.059 0.441z" opacity="1" visibility="false" fill="#6dc234"></path>
</svg>
