<?xml version="1.0" encoding="utf-8"?>
<!-- Generated by IcoMoon.io -->
<!DOCTYPE svg PUBLIC "-//W3C//DTD SVG 1.1//EN" "http://www.w3.org/Graphics/SVG/1.1/DTD/svg11.dtd">
<svg version="1.1" xmlns="http://www.w3.org/2000/svg" xmlns:xlink="http://www.w3.org/1999/xlink" width="90" height="90" viewBox="0 0 90 90">
<g id="icomoon-ignore">
	<line stroke-width="1" x1="" y1="" x2="" y2="" stroke="#6dc234" opacity=""></line>
</g>
	<path d="M20.31 77.625c-0.153 0-0.309-0.024-0.465-0.069-0.786-0.258-1.218-1.101-0.963-1.893l9.030-27.783c0.255-0.789 1.095-1.215 1.89-0.963 0.786 0.258 1.218 1.107 0.963 1.893l-9.030 27.78c-0.204 0.633-0.792 1.035-1.425 1.035z" opacity="1" visibility="false" fill="#6dc234"></path>
	<path d="M55.701 62.625c-0.606 0-1.182-0.372-1.404-0.972l-5.361-14.292-16.254-4.563c-0.798-0.225-1.263-1.053-1.038-1.851s1.059-1.257 1.851-1.038l16.992 4.767c0.459 0.129 0.828 0.471 0.999 0.918l5.625 15c0.294 0.777-0.102 1.641-0.876 1.932-0.183 0.069-0.36 0.099-0.534 0.099z" opacity="1" visibility="false" fill="#6dc234"></path>
	<path d="M14.766 30.24c-0.48 0-0.951-0.231-1.242-0.657-0.465-0.687-0.288-1.62 0.399-2.085l14.571-9.882c0.597-0.402 1.395-0.327 1.902 0.18l3.399 3.399c0.585 0.585 0.585 1.536 0 2.121s-1.536 0.585-2.121 0l-2.523-2.523-13.545 9.189c-0.258 0.174-0.552 0.258-0.84 0.258z" opacity="1" visibility="false" fill="#6dc234"></path>
	<path d="M52.734 35.625h-7.383c-0.387 0-0.762-0.15-1.041-0.42l-8.826-8.514c-0.597-0.576-0.615-1.524-0.039-2.121 0.573-0.597 1.524-0.615 2.121-0.039l8.388 8.094h6.78c0.825 0 1.5 0.672 1.5 1.5s-0.672 1.5-1.5 1.5z" opacity="1" visibility="false" fill="#6dc234"></path>
	<path d="M42.6 21.375c-2.895 0-5.253-2.355-5.253-5.25s2.358-5.25 5.253-5.25c2.892 0 5.247 2.355 5.247 5.25s-2.355 5.25-5.247 5.25zM42.6 13.875c-1.242 0-2.253 1.008-2.253 2.25s1.011 2.25 2.253 2.25c1.239 0 2.247-1.008 2.247-2.25s-1.008-2.25-2.247-2.25z" opacity="1" visibility="false" fill="#6dc234"></path>
	<path d="M75.234 79.125c-0.825 0-1.5-0.675-1.5-1.5v-6h-27v6c0 0.825-0.672 1.5-1.5 1.5s-1.5-0.675-1.5-1.5v-7.5c0-0.825 0.672-1.5 1.5-1.5h30c0.825 0 1.5 0.675 1.5 1.5v7.5c0 0.825-0.672 1.5-1.5 1.5z" opacity="1" visibility="false" fill="#6dc234"></path>
</svg>
