<?xml version="1.0" encoding="utf-8"?>
<!-- Generated by IcoMoon.io -->
<!DOCTYPE svg PUBLIC "-//W3C//DTD SVG 1.1//EN" "http://www.w3.org/Graphics/SVG/1.1/DTD/svg11.dtd">
<svg version="1.1" xmlns="http://www.w3.org/2000/svg" xmlns:xlink="http://www.w3.org/1999/xlink" width="90" height="90" viewBox="0 0 90 90">
<g id="icomoon-ignore">
	<line stroke-width="1" x1="" y1="" x2="" y2="" stroke="#6dc234" opacity=""></line>
</g>
	<path d="M43.125 66.564h-0.564c-7.095 0-13.152-5.976-13.8-13.317-3.216-0.891-5.478-4.653-5.478-8.058v-3.75c0-1.716 0-4.44 3-5.103v-5.019c0-6.291 3.501-10.551 8.742-10.689 1.041-0.36 2.124-0.768 3.234-1.185 3.93-1.482 7.995-3.012 11.619-3.012 6.243 0 9.408 4.629 9.408 13.758v6.681c1.116 0.786 3 2.43 3 4.569v3.75c0 3.345-2.397 7.167-5.694 8.064-0.618 7.446-6.423 13.311-13.467 13.311zM49.875 19.428c-3.075 0-6.879 1.434-10.563 2.82-1.218 0.459-2.412 0.909-3.549 1.296-0.156 0.054-0.318 0.078-0.483 0.078-4.425 0-6 3.972-6 7.692v6.372c0 0.828-0.672 1.5-1.5 1.5-1.458 0-1.5 0.063-1.5 2.25v3.75c0 2.379 1.749 5.253 3.921 5.253 0.828 0 1.5 0.675 1.5 1.5 0 6.3 4.971 11.622 10.857 11.622h0.564c5.799 0 10.515-5.211 10.515-11.622 0-0.825 0.672-1.5 1.5-1.5 2.187 0 4.143-2.937 4.143-5.253v-3.75c0-0.768-1.32-1.932-2.232-2.442-0.471-0.264-0.768-0.765-0.768-1.308v-7.5c0.003-9.537-3.423-10.758-6.405-10.758z" opacity="1" visibility="false" fill="#6dc234"></path>
	<path d="M75.174 87.564h-63.927c-0.828 0-1.5-0.675-1.5-1.5 0-12.144 8.4-20.625 20.427-20.625 0.828 0 1.5 0.675 1.5 1.5s-0.672 1.5-1.5 1.5c-9.759 0-16.719 6.558-17.376 16.125h60.825c-0.645-9.792-7.608-16.5-17.376-16.5-0.828 0-1.5-0.675-1.5-1.5s0.672-1.5 1.5-1.5c11.832 0 20.427 8.829 20.427 21 0 0.825-0.669 1.5-1.5 1.5z" opacity="1" visibility="false" fill="#6dc234"></path>
	<path d="M1.875 39.183c-0.828 0-1.5-0.672-1.5-1.5 0-5.997 4.878-10.875 10.875-10.875 0.828 0 1.5 0.672 1.5 1.5s-0.672 1.5-1.5 1.5c-4.341 0-7.875 3.531-7.875 7.875 0 0.822-0.672 1.5-1.5 1.5z" opacity="1" visibility="false" fill="#6dc234"></path>
	<path d="M88.125 39.183c-0.828 0-1.5-0.672-1.5-1.5 0-4.344-3.534-7.875-7.875-7.875-0.828 0-1.5-0.672-1.5-1.5s0.672-1.5 1.5-1.5c5.997 0 10.875 4.878 10.875 10.875 0 0.822-0.675 1.5-1.5 1.5z" opacity="1" visibility="false" fill="#6dc234"></path>
	<path d="M18.75 27.939c-5.709 0-9-12.522-9-16.5 0-4.962 4.038-9 9-9s9 4.038 9 9c0 3.975-3.291 16.5-9 16.5zM18.75 5.439c-3.312 0-6 2.691-6 6 0 4.239 3.423 13.5 6 13.5s6-9.261 6-13.5c0-3.315-2.691-6-6-6z" opacity="1" visibility="false" fill="#6dc234"></path>
	<path d="M71.25 27.939c-5.709 0-9-12.522-9-16.5 0-4.962 4.038-9 9-9s9 4.038 9 9c0 3.975-3.294 16.5-9 16.5zM71.25 5.439c-3.312 0-6 2.691-6 6 0 4.239 3.423 13.5 6 13.5s6-9.261 6-13.5c0-3.315-2.691-6-6-6z" opacity="1" visibility="false" fill="#6dc234"></path>
</svg>
